<svg width="30" height="29" viewBox="0 0 30 29" fill="none" xmlns="http://www.w3.org/2000/svg">
<g clip-path="url(#clip0_120_12)">
<path d="M21.7931 17.6453C21.7931 18.8549 22.1372 19.3373 23.0372 19.3373C25.0431 19.3373 26.3204 16.7814 26.3204 12.5305C26.3204 6.03333 21.5857 2.92297 15.6746 2.92297C9.59355 2.92297 4.06258 7.001 4.06258 14.7078C4.06258 22.069 8.90092 26.0779 16.3312 26.0779C18.8541 26.0779 20.5475 25.8014 23.138 24.9374L23.6939 27.2515C21.1364 28.0823 18.4034 28.3228 16.2967 28.3228C6.55087 28.3228 1.33093 22.9661 1.33093 14.7063C1.33093 6.37748 7.3803 0.709717 15.7092 0.709717C24.3836 0.709717 28.9786 5.89365 28.9786 12.2526C28.9786 17.6439 27.2866 21.7565 21.9644 21.7565C19.5438 21.7565 17.9555 20.7888 17.7482 18.6447C17.1261 21.0293 15.4672 21.7565 13.2194 21.7565C10.2127 21.7565 7.68989 19.4396 7.68989 14.7755C7.68989 10.0754 9.90315 7.17236 13.8775 7.17236C15.9856 7.17236 17.2989 8.00179 17.8835 9.31505L18.8872 7.48339H21.7902V17.6453H21.7931ZM17.5437 13.0835C17.5437 11.1841 16.1253 10.3878 14.9503 10.3878C13.6716 10.3878 12.2561 11.4232 12.2561 14.4659C12.2561 16.885 13.3274 18.2329 14.9503 18.2329C16.0907 18.2329 17.5437 17.5071 17.5437 15.5027V13.0835Z" fill="white"/>
</g>
<defs>
<clipPath id="clip0_120_12">
<rect width="28.7996" height="28.7996" fill="white" transform="translate(0.757751 0.11792)"/>
</clipPath>
</defs>
</svg>
