<svg width="30" height="29" viewBox="0 0 30 29" fill="none" xmlns="http://www.w3.org/2000/svg">
<path fill-rule="evenodd" clip-rule="evenodd" d="M14.8671 4.91779C13.1747 4.91741 11.5123 5.36444 10.0484 6.21356C8.58444 7.06269 7.37098 8.28373 6.531 9.75294C5.69102 11.2221 5.25436 12.8873 5.26529 14.5796C5.27621 16.272 5.73433 17.9314 6.59321 19.3896L7.276 20.2512L6.43962 23.082L9.22358 22.3044L9.67837 22.596C10.9335 23.4018 12.3591 23.904 13.8421 24.0629C15.3251 24.2218 16.8248 24.033 18.2221 23.5113C19.6194 22.9897 20.876 22.1497 21.8921 21.0578C22.9083 19.966 23.656 18.6524 24.0761 17.2213C24.4961 15.7901 24.5769 14.2808 24.3121 12.813C24.0472 11.3452 23.444 9.95928 22.5503 8.7652C21.6565 7.57112 20.4968 6.60172 19.1632 5.93388C17.8295 5.26605 16.3586 4.91815 14.8671 4.91779ZM2.86726 14.5177C2.86726 7.89015 8.23959 2.51782 14.8671 2.51782C21.4946 2.51782 26.867 7.89015 26.867 14.5177C26.867 21.1452 21.4946 26.5175 14.8671 26.5175C12.7531 26.5205 10.6761 25.9628 8.84798 24.9011L2.91046 26.5595L4.62164 20.7648L4.61444 20.7564L4.57484 20.6904C3.45469 18.8265 2.8643 16.6923 2.86726 14.5177Z" fill="white"/>
<path d="M20.549 16.308C20.5034 16.2864 18.7526 15.4248 18.4418 15.312C18.3121 15.2584 18.1741 15.228 18.0338 15.222C17.7986 15.222 17.5994 15.3396 17.4458 15.5712C17.2707 15.8316 16.7415 16.4496 16.5783 16.6344C16.5567 16.6584 16.5279 16.6884 16.5099 16.6884C16.4943 16.6884 16.2231 16.5768 16.1415 16.5408C14.2647 15.7248 12.8403 13.7653 12.6447 13.4341C12.6171 13.3861 12.6159 13.3657 12.6159 13.3657C12.6219 13.3405 12.6855 13.2769 12.7179 13.2445C12.8139 13.1497 12.9171 13.0261 13.0167 12.9049L13.1571 12.7369C13.3023 12.5689 13.3671 12.4369 13.4415 12.2869L13.4811 12.2077C13.5405 12.0875 13.5693 11.9546 13.5652 11.8207C13.561 11.6867 13.5239 11.5559 13.4571 11.4397C13.4163 11.3569 12.6771 9.57371 12.5991 9.38651C12.4095 8.93412 12.1599 8.72412 11.8131 8.72412C11.7807 8.72412 11.8131 8.72412 11.6787 8.73012C11.5143 8.73612 10.6191 8.85492 10.2231 9.10332C9.80314 9.36731 9.09515 10.2121 9.09515 11.6953C9.09515 13.0297 9.94114 14.2897 10.3047 14.7684L10.3539 14.8404C11.7471 16.8744 13.4835 18.3816 15.2427 19.0848C16.9371 19.7616 17.7398 19.8408 18.1958 19.8408C18.3878 19.8408 18.5414 19.8252 18.6758 19.812L18.7622 19.8036C19.3478 19.752 20.6342 19.0848 20.927 18.2724C21.1574 17.6316 21.2186 16.932 21.065 16.6776C20.9594 16.5048 20.7782 16.4184 20.549 16.308Z" fill="white"/>
</svg>
