<svg width="38" height="37" viewBox="0 0 38 37" fill="none" xmlns="http://www.w3.org/2000/svg">
<path d="M18.5866 3.64795C16.562 3.64795 14.5573 4.03594 12.6869 4.78976C10.8164 5.54358 9.11693 6.64847 7.68536 8.04135C4.79417 10.8544 3.16992 14.6697 3.16992 18.6479C3.16992 25.2779 7.59451 30.9029 13.7149 32.8979C14.4858 33.0179 14.7324 32.5529 14.7324 32.1479V29.6129C10.462 30.5129 9.55242 27.6029 9.55242 27.6029C8.84326 25.8629 7.84117 25.3979 7.84117 25.3979C6.43826 24.4679 7.94909 24.4979 7.94909 24.4979C9.49076 24.6029 10.3078 26.0429 10.3078 26.0429C11.6491 28.3229 13.9153 27.6479 14.7941 27.2879C14.9328 26.3129 15.3337 25.6529 15.7653 25.2779C12.3428 24.9029 8.75076 23.6129 8.75076 17.8979C8.75076 16.2329 9.33659 14.8979 10.3387 13.8329C10.1845 13.4579 9.64492 11.8979 10.4928 9.87295C10.4928 9.87295 11.7878 9.46795 14.7324 11.4029C15.9503 11.0729 17.2762 10.9079 18.5866 10.9079C19.897 10.9079 21.2228 11.0729 22.4408 11.4029C25.3853 9.46795 26.6803 9.87295 26.6803 9.87295C27.5283 11.8979 26.9887 13.4579 26.8345 13.8329C27.8366 14.8979 28.4224 16.2329 28.4224 17.8979C28.4224 23.6279 24.8149 24.8879 21.377 25.2629C21.932 25.7279 22.4408 26.6429 22.4408 28.0379V32.1479C22.4408 32.5529 22.6874 33.0329 23.4737 32.8979C29.5941 30.8879 34.0033 25.2779 34.0033 18.6479C34.0033 16.6781 33.6045 14.7276 32.8297 12.9077C32.055 11.0878 30.9194 9.43423 29.4878 8.04135C28.0562 6.64847 26.3567 5.54358 24.4863 4.78976C22.6159 4.03594 20.6111 3.64795 18.5866 3.64795Z" fill="white"/>
</svg>
