<svg width="37" height="37" viewBox="0 0 37 37" fill="none" xmlns="http://www.w3.org/2000/svg">
<path d="M3.53187 18.3629C11.4019 14.9339 16.6504 12.6729 19.2774 11.5799C26.7759 8.46136 28.3329 7.91986 29.3484 7.90186C29.5734 7.89736 30.0714 7.95286 30.3954 8.21686C30.6684 8.43736 30.7434 8.73736 30.7794 8.94736C30.8154 9.15736 30.8604 9.63586 30.8244 10.0094C30.4194 14.2799 28.6599 24.6404 27.7644 29.4224C27.3864 31.4444 26.6424 32.1224 25.9194 32.1899C24.3519 32.3339 23.1624 31.1549 21.6444 30.1589C19.2669 28.6004 17.9244 27.6299 15.6174 26.1104C12.9519 24.3539 14.6799 23.3879 16.1994 21.8099C16.5969 21.3974 23.5044 15.1139 23.6394 14.5439C23.6544 14.4719 23.6709 14.2064 23.5134 14.0669C23.3559 13.9259 23.1234 13.9739 22.9539 14.0129C22.7149 14.0669 18.9189 16.5759 11.5659 21.5399C10.4869 22.2799 9.51087 22.6404 8.63787 22.6214C7.67337 22.6004 5.81787 22.0769 4.44087 21.6284C2.74887 21.0779 1.40487 20.7884 1.52187 19.8539C1.58287 19.3679 2.25287 18.8709 3.53187 18.3629Z" fill="white"/>
</svg>
